<svg xmlns="http://www.w3.org/2000/svg" viewBox="0 0 720 744" width="720" height="744">
<rect width="720" height="744" fill="white" rx="6"/>
<rect x="20" y="20" width="11" height="11" rx="2" fill="#534AB7"/>
<text x="35" y="31" font-size="11.5" fill="#57606a" font-family="-apple-system,BlinkMacSystemFont,'Segoe UI',Helvetica,Arial,sans-serif">Parséman (macro build)</text>
<rect x="196" y="20" width="11" height="11" rx="2" fill="#9B8FEF"/>
<text x="211" y="31" font-size="11.5" fill="#57606a" font-family="-apple-system,BlinkMacSystemFont,'Segoe UI',Helvetica,Arial,sans-serif">Parséman (w/ .compile())</text>
<rect x="386" y="20" width="11" height="11" rx="2" fill="#C4BAFF"/>
<text x="401" y="31" font-size="11.5" fill="#57606a" font-family="-apple-system,BlinkMacSystemFont,'Segoe UI',Helvetica,Arial,sans-serif">Parséman (no compile)</text>
<rect x="20" y="40" width="11" height="11" rx="2" fill="#1D9E75"/>
<text x="35" y="51" font-size="11.5" fill="#57606a" font-family="-apple-system,BlinkMacSystemFont,'Segoe UI',Helvetica,Arial,sans-serif">Peggy</text>
<rect x="77" y="40" width="11" height="11" rx="2" fill="#E24B4A"/>
<text x="92" y="51" font-size="11.5" fill="#57606a" font-family="-apple-system,BlinkMacSystemFont,'Segoe UI',Helvetica,Arial,sans-serif">Parsimmon</text>
<rect x="162" y="40" width="11" height="11" rx="2" fill="#BA7517"/>
<text x="177" y="51" font-size="11.5" fill="#57606a" font-family="-apple-system,BlinkMacSystemFont,'Segoe UI',Helvetica,Arial,sans-serif">Chevrotain</text>
<text x="700" y="31" font-size="10.5" fill="#8c959f" text-anchor="end" font-family="-apple-system,BlinkMacSystemFont,'Segoe UI',Helvetica,Arial,sans-serif">µs / parse — shorter is faster</text>
<text x="20" y="86" font-size="10.5" font-weight="600" fill="#8c959f" letter-spacing="0.06em" font-family="-apple-system,BlinkMacSystemFont,'Segoe UI',Helvetica,Arial,sans-serif">JSON PARSING</text>
<text x="20" y="111" font-size="12.5" fill="#57606a" font-family="-apple-system,BlinkMacSystemFont,'Segoe UI',Helvetica,Arial,sans-serif">small  (52 bytes)</text>
<text x="230" y="146" text-anchor="end" font-size="12" fill="#24292f" font-family="-apple-system,BlinkMacSystemFont,'Segoe UI',Helvetica,Arial,sans-serif">Parséman (macro build)</text>
<rect x="238" y="131" width="386" height="18" rx="3" fill="#eaeef2"/>
<rect x="238" y="131" width="13.5" height="18" rx="3" fill="#534AB7"/>
<text x="256.47958558917617" y="146" font-size="11" fill="#57606a" font-family="-apple-system,BlinkMacSystemFont,'Segoe UI',Helvetica,Arial,sans-serif">2.21 µs</text>
<text x="230" y="174" text-anchor="end" font-size="12" fill="#24292f" font-family="-apple-system,BlinkMacSystemFont,'Segoe UI',Helvetica,Arial,sans-serif">Peggy</text>
<rect x="238" y="159" width="386" height="18" rx="3" fill="#eaeef2"/>
<rect x="238" y="159" width="14.6" height="18" rx="3" fill="#1D9E75"/>
<text x="257.5652111341068" y="174" font-size="11" fill="#57606a" font-family="-apple-system,BlinkMacSystemFont,'Segoe UI',Helvetica,Arial,sans-serif">2.58 µs</text>
<text x="230" y="202" text-anchor="end" font-size="12" fill="#24292f" font-family="-apple-system,BlinkMacSystemFont,'Segoe UI',Helvetica,Arial,sans-serif">Parséman (no compile)</text>
<rect x="238" y="187" width="386" height="18" rx="3" fill="#eaeef2"/>
<rect x="238" y="187" width="15.2" height="18" rx="3" fill="#C4BAFF"/>
<text x="258.19301815528564" y="202" font-size="11" fill="#57606a" font-family="-apple-system,BlinkMacSystemFont,'Segoe UI',Helvetica,Arial,sans-serif">2.81 µs</text>
<text x="230" y="230" text-anchor="end" font-size="12" fill="#24292f" font-family="-apple-system,BlinkMacSystemFont,'Segoe UI',Helvetica,Arial,sans-serif">Parsimmon</text>
<rect x="238" y="215" width="386" height="18" rx="3" fill="#eaeef2"/>
<rect x="238" y="215" width="22.2" height="18" rx="3" fill="#E24B4A"/>
<text x="265.1571775515516" y="230" font-size="11" fill="#57606a" font-family="-apple-system,BlinkMacSystemFont,'Segoe UI',Helvetica,Arial,sans-serif">5.97 µs</text>
<text x="230" y="258" text-anchor="end" font-size="12" fill="#24292f" font-family="-apple-system,BlinkMacSystemFont,'Segoe UI',Helvetica,Arial,sans-serif">Chevrotain</text>
<rect x="238" y="243" width="386" height="18" rx="3" fill="#eaeef2"/>
<rect x="238" y="243" width="24.7" height="18" rx="3" fill="#BA7517"/>
<text x="267.6647392451779" y="258" font-size="11" fill="#57606a" font-family="-apple-system,BlinkMacSystemFont,'Segoe UI',Helvetica,Arial,sans-serif">7.40 µs</text>
<text x="230" y="286" text-anchor="end" font-size="12" fill="#24292f" font-family="-apple-system,BlinkMacSystemFont,'Segoe UI',Helvetica,Arial,sans-serif">Parséman (w/ .compile())</text>
<rect x="238" y="271" width="386" height="18" rx="3" fill="#eaeef2"/>
<rect x="238" y="271" width="61.1" height="18" rx="3" fill="#D0C8FF"/>
<rect x="238" y="271" width="13.5" height="18" rx="3" fill="#9B8FEF"/>
<text x="304.08731663842735" y="286" font-size="11" fill="#57606a" font-family="-apple-system,BlinkMacSystemFont,'Segoe UI',Helvetica,Arial,sans-serif">45.4 µs</text>
<text x="20" y="315" font-size="12.5" fill="#57606a" font-family="-apple-system,BlinkMacSystemFont,'Segoe UI',Helvetica,Arial,sans-serif">medium  (1.8 kB)</text>
<text x="230" y="350" text-anchor="end" font-size="12" fill="#24292f" font-family="-apple-system,BlinkMacSystemFont,'Segoe UI',Helvetica,Arial,sans-serif">Parséman (macro build)</text>
<rect x="238" y="335" width="386" height="18" rx="3" fill="#eaeef2"/>
<rect x="238" y="335" width="72.1" height="18" rx="3" fill="#534AB7"/>
<text x="315.06433529874283" y="350" font-size="11" fill="#57606a" font-family="-apple-system,BlinkMacSystemFont,'Segoe UI',Helvetica,Arial,sans-serif">63.1 µs</text>
<text x="230" y="378" text-anchor="end" font-size="12" fill="#24292f" font-family="-apple-system,BlinkMacSystemFont,'Segoe UI',Helvetica,Arial,sans-serif">Peggy</text>
<rect x="238" y="363" width="386" height="18" rx="3" fill="#eaeef2"/>
<rect x="238" y="363" width="74.3" height="18" rx="3" fill="#1D9E75"/>
<text x="317.27576807841376" y="378" font-size="11" fill="#57606a" font-family="-apple-system,BlinkMacSystemFont,'Segoe UI',Helvetica,Arial,sans-serif">67.1 µs</text>
<text x="230" y="406" text-anchor="end" font-size="12" fill="#24292f" font-family="-apple-system,BlinkMacSystemFont,'Segoe UI',Helvetica,Arial,sans-serif">Parséman (no compile)</text>
<rect x="238" y="391" width="386" height="18" rx="3" fill="#eaeef2"/>
<rect x="238" y="391" width="83.7" height="18" rx="3" fill="#C4BAFF"/>
<text x="326.67098364173256" y="406" font-size="11" fill="#57606a" font-family="-apple-system,BlinkMacSystemFont,'Segoe UI',Helvetica,Arial,sans-serif">85.1 µs</text>
<text x="230" y="434" text-anchor="end" font-size="12" fill="#24292f" font-family="-apple-system,BlinkMacSystemFont,'Segoe UI',Helvetica,Arial,sans-serif">Parséman (w/ .compile())</text>
<rect x="238" y="419" width="386" height="18" rx="3" fill="#eaeef2"/>
<rect x="238" y="419" width="93.2" height="18" rx="3" fill="#D0C8FF"/>
<rect x="238" y="419" width="72.1" height="18" rx="3" fill="#9B8FEF"/>
<text x="336.2173031692219" y="434" font-size="11" fill="#57606a" font-family="-apple-system,BlinkMacSystemFont,'Segoe UI',Helvetica,Arial,sans-serif">106 µs</text>
<text x="230" y="462" text-anchor="end" font-size="12" fill="#24292f" font-family="-apple-system,BlinkMacSystemFont,'Segoe UI',Helvetica,Arial,sans-serif">Parsimmon</text>
<rect x="238" y="447" width="386" height="18" rx="3" fill="#eaeef2"/>
<rect x="238" y="447" width="126.9" height="18" rx="3" fill="#E24B4A"/>
<text x="369.85392317268133" y="462" font-size="11" fill="#57606a" font-family="-apple-system,BlinkMacSystemFont,'Segoe UI',Helvetica,Arial,sans-serif">196 µs</text>
<text x="230" y="490" text-anchor="end" font-size="12" fill="#24292f" font-family="-apple-system,BlinkMacSystemFont,'Segoe UI',Helvetica,Arial,sans-serif">Chevrotain</text>
<rect x="238" y="475" width="386" height="18" rx="3" fill="#eaeef2"/>
<rect x="238" y="475" width="138.6" height="18" rx="3" fill="#BA7517"/>
<text x="381.6067018566546" y="490" font-size="11" fill="#57606a" font-family="-apple-system,BlinkMacSystemFont,'Segoe UI',Helvetica,Arial,sans-serif">234 µs</text>
<text x="20" y="519" font-size="12.5" fill="#57606a" font-family="-apple-system,BlinkMacSystemFont,'Segoe UI',Helvetica,Arial,sans-serif">large  (12 kB)</text>
<text x="230" y="554" text-anchor="end" font-size="12" fill="#24292f" font-family="-apple-system,BlinkMacSystemFont,'Segoe UI',Helvetica,Arial,sans-serif">Peggy</text>
<rect x="238" y="539" width="386" height="18" rx="3" fill="#eaeef2"/>
<rect x="238" y="539" width="197.9" height="18" rx="3" fill="#1D9E75"/>
<text x="440.94777488445175" y="554" font-size="11" fill="#57606a" font-family="-apple-system,BlinkMacSystemFont,'Segoe UI',Helvetica,Arial,sans-serif">476 µs</text>
<text x="230" y="582" text-anchor="end" font-size="12" fill="#24292f" font-family="-apple-system,BlinkMacSystemFont,'Segoe UI',Helvetica,Arial,sans-serif">Parséman (macro build)</text>
<rect x="238" y="567" width="386" height="18" rx="3" fill="#eaeef2"/>
<rect x="238" y="567" width="219.4" height="18" rx="3" fill="#534AB7"/>
<text x="462.3743324045995" y="582" font-size="11" fill="#57606a" font-family="-apple-system,BlinkMacSystemFont,'Segoe UI',Helvetica,Arial,sans-serif">585 µs</text>
<text x="230" y="610" text-anchor="end" font-size="12" fill="#24292f" font-family="-apple-system,BlinkMacSystemFont,'Segoe UI',Helvetica,Arial,sans-serif">Parséman (w/ .compile())</text>
<rect x="238" y="595" width="386" height="18" rx="3" fill="#eaeef2"/>
<rect x="238" y="595" width="227.7" height="18" rx="3" fill="#D0C8FF"/>
<rect x="238" y="595" width="219.4" height="18" rx="3" fill="#9B8FEF"/>
<text x="470.7221377140223" y="610" font-size="11" fill="#57606a" font-family="-apple-system,BlinkMacSystemFont,'Segoe UI',Helvetica,Arial,sans-serif">631 µs</text>
<text x="230" y="638" text-anchor="end" font-size="12" fill="#24292f" font-family="-apple-system,BlinkMacSystemFont,'Segoe UI',Helvetica,Arial,sans-serif">Parséman (no compile)</text>
<rect x="238" y="623" width="386" height="18" rx="3" fill="#eaeef2"/>
<rect x="238" y="623" width="252.5" height="18" rx="3" fill="#C4BAFF"/>
<text x="495.5003522907973" y="638" font-size="11" fill="#57606a" font-family="-apple-system,BlinkMacSystemFont,'Segoe UI',Helvetica,Arial,sans-serif">775 µs</text>
<text x="230" y="666" text-anchor="end" font-size="12" fill="#24292f" font-family="-apple-system,BlinkMacSystemFont,'Segoe UI',Helvetica,Arial,sans-serif">Parsimmon</text>
<rect x="238" y="651" width="386" height="18" rx="3" fill="#eaeef2"/>
<rect x="238" y="651" width="349.1" height="18" rx="3" fill="#E24B4A"/>
<text x="592.0639164648471" y="666" font-size="11" fill="#57606a" font-family="-apple-system,BlinkMacSystemFont,'Segoe UI',Helvetica,Arial,sans-serif">1.48 ms</text>
<text x="230" y="694" text-anchor="end" font-size="12" fill="#24292f" font-family="-apple-system,BlinkMacSystemFont,'Segoe UI',Helvetica,Arial,sans-serif">Chevrotain</text>
<rect x="238" y="679" width="386" height="18" rx="3" fill="#eaeef2"/>
<rect x="238" y="679" width="386.0" height="18" rx="3" fill="#BA7517"/>
<text x="629" y="694" font-size="11" fill="#57606a" font-family="-apple-system,BlinkMacSystemFont,'Segoe UI',Helvetica,Arial,sans-serif">1.81 ms</text>
</svg>