<svg xmlns="http://www.w3.org/2000/svg" viewBox="0 0 720 744" width="720" height="744">
<rect width="720" height="744" fill="white" rx="6"/>
<rect x="20" y="20" width="11" height="11" rx="2" fill="#534AB7"/>
<text x="35" y="31" font-size="11.5" fill="#57606a" font-family="-apple-system,BlinkMacSystemFont,'Segoe UI',Helvetica,Arial,sans-serif">Parséman (macro build)</text>
<rect x="196" y="20" width="11" height="11" rx="2" fill="#9B8FEF"/>
<text x="211" y="31" font-size="11.5" fill="#57606a" font-family="-apple-system,BlinkMacSystemFont,'Segoe UI',Helvetica,Arial,sans-serif">Parséman (w/ .compile())</text>
<rect x="386" y="20" width="11" height="11" rx="2" fill="#C4BAFF"/>
<text x="401" y="31" font-size="11.5" fill="#57606a" font-family="-apple-system,BlinkMacSystemFont,'Segoe UI',Helvetica,Arial,sans-serif">Parséman (no compile)</text>
<rect x="20" y="40" width="11" height="11" rx="2" fill="#1D9E75"/>
<text x="35" y="51" font-size="11.5" fill="#57606a" font-family="-apple-system,BlinkMacSystemFont,'Segoe UI',Helvetica,Arial,sans-serif">Peggy</text>
<rect x="77" y="40" width="11" height="11" rx="2" fill="#E24B4A"/>
<text x="92" y="51" font-size="11.5" fill="#57606a" font-family="-apple-system,BlinkMacSystemFont,'Segoe UI',Helvetica,Arial,sans-serif">Parsimmon</text>
<rect x="162" y="40" width="11" height="11" rx="2" fill="#BA7517"/>
<text x="177" y="51" font-size="11.5" fill="#57606a" font-family="-apple-system,BlinkMacSystemFont,'Segoe UI',Helvetica,Arial,sans-serif">Chevrotain</text>
<text x="700" y="31" font-size="10.5" fill="#8c959f" text-anchor="end" font-family="-apple-system,BlinkMacSystemFont,'Segoe UI',Helvetica,Arial,sans-serif">µs / parse — shorter is faster</text>
<text x="20" y="86" font-size="10.5" font-weight="600" fill="#8c959f" letter-spacing="0.06em" font-family="-apple-system,BlinkMacSystemFont,'Segoe UI',Helvetica,Arial,sans-serif">GRAPHQL PARSING</text>
<text x="20" y="111" font-size="12.5" fill="#57606a" font-family="-apple-system,BlinkMacSystemFont,'Segoe UI',Helvetica,Arial,sans-serif">small  (27 bytes)</text>
<text x="230" y="146" text-anchor="end" font-size="12" fill="#24292f" font-family="-apple-system,BlinkMacSystemFont,'Segoe UI',Helvetica,Arial,sans-serif">Parséman (macro build)</text>
<rect x="238" y="131" width="386" height="18" rx="3" fill="#eaeef2"/>
<rect x="238" y="131" width="10.6" height="18" rx="3" fill="#534AB7"/>
<text x="253.59737701230821" y="146" font-size="11" fill="#57606a" font-family="-apple-system,BlinkMacSystemFont,'Segoe UI',Helvetica,Arial,sans-serif">1.16 µs</text>
<text x="230" y="174" text-anchor="end" font-size="12" fill="#24292f" font-family="-apple-system,BlinkMacSystemFont,'Segoe UI',Helvetica,Arial,sans-serif">Peggy</text>
<rect x="238" y="159" width="386" height="18" rx="3" fill="#eaeef2"/>
<rect x="238" y="159" width="15.0" height="18" rx="3" fill="#1D9E75"/>
<text x="258.0149765891998" y="174" font-size="11" fill="#57606a" font-family="-apple-system,BlinkMacSystemFont,'Segoe UI',Helvetica,Arial,sans-serif">2.34 µs</text>
<text x="230" y="202" text-anchor="end" font-size="12" fill="#24292f" font-family="-apple-system,BlinkMacSystemFont,'Segoe UI',Helvetica,Arial,sans-serif">Chevrotain</text>
<rect x="238" y="187" width="386" height="18" rx="3" fill="#eaeef2"/>
<rect x="238" y="187" width="19.0" height="18" rx="3" fill="#BA7517"/>
<text x="262.00854932476284" y="202" font-size="11" fill="#57606a" font-family="-apple-system,BlinkMacSystemFont,'Segoe UI',Helvetica,Arial,sans-serif">3.75 µs</text>
<text x="230" y="230" text-anchor="end" font-size="12" fill="#24292f" font-family="-apple-system,BlinkMacSystemFont,'Segoe UI',Helvetica,Arial,sans-serif">Parséman (no compile)</text>
<rect x="238" y="215" width="386" height="18" rx="3" fill="#eaeef2"/>
<rect x="238" y="215" width="19.1" height="18" rx="3" fill="#C4BAFF"/>
<text x="262.1240160289029" y="230" font-size="11" fill="#57606a" font-family="-apple-system,BlinkMacSystemFont,'Segoe UI',Helvetica,Arial,sans-serif">3.79 µs</text>
<text x="230" y="258" text-anchor="end" font-size="12" fill="#24292f" font-family="-apple-system,BlinkMacSystemFont,'Segoe UI',Helvetica,Arial,sans-serif">Parsimmon</text>
<rect x="238" y="243" width="386" height="18" rx="3" fill="#eaeef2"/>
<rect x="238" y="243" width="32.9" height="18" rx="3" fill="#E24B4A"/>
<text x="275.9371706980794" y="258" font-size="11" fill="#57606a" font-family="-apple-system,BlinkMacSystemFont,'Segoe UI',Helvetica,Arial,sans-serif">11.3 µs</text>
<text x="230" y="286" text-anchor="end" font-size="12" fill="#24292f" font-family="-apple-system,BlinkMacSystemFont,'Segoe UI',Helvetica,Arial,sans-serif">Parséman (w/ .compile())</text>
<rect x="238" y="271" width="386" height="18" rx="3" fill="#eaeef2"/>
<rect x="238" y="271" width="166.7" height="18" rx="3" fill="#D0C8FF"/>
<rect x="238" y="271" width="10.6" height="18" rx="3" fill="#9B8FEF"/>
<text x="409.67662871283966" y="286" font-size="11" fill="#57606a" font-family="-apple-system,BlinkMacSystemFont,'Segoe UI',Helvetica,Arial,sans-serif">288 µs</text>
<text x="20" y="315" font-size="12.5" fill="#57606a" font-family="-apple-system,BlinkMacSystemFont,'Segoe UI',Helvetica,Arial,sans-serif">medium  (336 bytes)</text>
<text x="230" y="350" text-anchor="end" font-size="12" fill="#24292f" font-family="-apple-system,BlinkMacSystemFont,'Segoe UI',Helvetica,Arial,sans-serif">Parséman (macro build)</text>
<rect x="238" y="335" width="386" height="18" rx="3" fill="#eaeef2"/>
<rect x="238" y="335" width="26.2" height="18" rx="3" fill="#534AB7"/>
<text x="269.21552712080904" y="350" font-size="11" fill="#57606a" font-family="-apple-system,BlinkMacSystemFont,'Segoe UI',Helvetica,Arial,sans-serif">7.13 µs</text>
<text x="230" y="378" text-anchor="end" font-size="12" fill="#24292f" font-family="-apple-system,BlinkMacSystemFont,'Segoe UI',Helvetica,Arial,sans-serif">Peggy</text>
<rect x="238" y="363" width="386" height="18" rx="3" fill="#eaeef2"/>
<rect x="238" y="363" width="39.2" height="18" rx="3" fill="#1D9E75"/>
<text x="282.232077369804" y="378" font-size="11" fill="#57606a" font-family="-apple-system,BlinkMacSystemFont,'Segoe UI',Helvetica,Arial,sans-serif">16.0 µs</text>
<text x="230" y="406" text-anchor="end" font-size="12" fill="#24292f" font-family="-apple-system,BlinkMacSystemFont,'Segoe UI',Helvetica,Arial,sans-serif">Parséman (no compile)</text>
<rect x="238" y="391" width="386" height="18" rx="3" fill="#eaeef2"/>
<rect x="238" y="391" width="45.4" height="18" rx="3" fill="#C4BAFF"/>
<text x="288.39077138577466" y="406" font-size="11" fill="#57606a" font-family="-apple-system,BlinkMacSystemFont,'Segoe UI',Helvetica,Arial,sans-serif">21.4 µs</text>
<text x="230" y="434" text-anchor="end" font-size="12" fill="#24292f" font-family="-apple-system,BlinkMacSystemFont,'Segoe UI',Helvetica,Arial,sans-serif">Chevrotain</text>
<rect x="238" y="419" width="386" height="18" rx="3" fill="#eaeef2"/>
<rect x="238" y="419" width="47.2" height="18" rx="3" fill="#BA7517"/>
<text x="290.22882189769734" y="434" font-size="11" fill="#57606a" font-family="-apple-system,BlinkMacSystemFont,'Segoe UI',Helvetica,Arial,sans-serif">23.1 µs</text>
<text x="230" y="462" text-anchor="end" font-size="12" fill="#24292f" font-family="-apple-system,BlinkMacSystemFont,'Segoe UI',Helvetica,Arial,sans-serif">Parsimmon</text>
<rect x="238" y="447" width="386" height="18" rx="3" fill="#eaeef2"/>
<rect x="238" y="447" width="73.7" height="18" rx="3" fill="#E24B4A"/>
<text x="316.67670439979383" y="462" font-size="11" fill="#57606a" font-family="-apple-system,BlinkMacSystemFont,'Segoe UI',Helvetica,Arial,sans-serif">56.3 µs</text>
<text x="230" y="490" text-anchor="end" font-size="12" fill="#24292f" font-family="-apple-system,BlinkMacSystemFont,'Segoe UI',Helvetica,Arial,sans-serif">Parséman (w/ .compile())</text>
<rect x="238" y="475" width="386" height="18" rx="3" fill="#eaeef2"/>
<rect x="238" y="475" width="167.8" height="18" rx="3" fill="#D0C8FF"/>
<rect x="238" y="475" width="26.2" height="18" rx="3" fill="#9B8FEF"/>
<text x="410.81701635613024" y="490" font-size="11" fill="#57606a" font-family="-apple-system,BlinkMacSystemFont,'Segoe UI',Helvetica,Arial,sans-serif">292 µs</text>
<text x="20" y="519" font-size="12.5" fill="#57606a" font-family="-apple-system,BlinkMacSystemFont,'Segoe UI',Helvetica,Arial,sans-serif">large  (7.8 kB)</text>
<text x="230" y="554" text-anchor="end" font-size="12" fill="#24292f" font-family="-apple-system,BlinkMacSystemFont,'Segoe UI',Helvetica,Arial,sans-serif">Parséman (macro build)</text>
<rect x="238" y="539" width="386" height="18" rx="3" fill="#eaeef2"/>
<rect x="238" y="539" width="133.2" height="18" rx="3" fill="#534AB7"/>
<text x="376.1802024677348" y="554" font-size="11" fill="#57606a" font-family="-apple-system,BlinkMacSystemFont,'Segoe UI',Helvetica,Arial,sans-serif">184 µs</text>
<text x="230" y="582" text-anchor="end" font-size="12" fill="#24292f" font-family="-apple-system,BlinkMacSystemFont,'Segoe UI',Helvetica,Arial,sans-serif">Peggy</text>
<rect x="238" y="567" width="386" height="18" rx="3" fill="#eaeef2"/>
<rect x="238" y="567" width="188.9" height="18" rx="3" fill="#1D9E75"/>
<text x="431.8846964987597" y="582" font-size="11" fill="#57606a" font-family="-apple-system,BlinkMacSystemFont,'Segoe UI',Helvetica,Arial,sans-serif">370 µs</text>
<text x="230" y="610" text-anchor="end" font-size="12" fill="#24292f" font-family="-apple-system,BlinkMacSystemFont,'Segoe UI',Helvetica,Arial,sans-serif">Parséman (w/ .compile())</text>
<rect x="238" y="595" width="386" height="18" rx="3" fill="#eaeef2"/>
<rect x="238" y="595" width="212.8" height="18" rx="3" fill="#D0C8FF"/>
<rect x="238" y="595" width="133.2" height="18" rx="3" fill="#9B8FEF"/>
<text x="455.8401876731032" y="610" font-size="11" fill="#57606a" font-family="-apple-system,BlinkMacSystemFont,'Segoe UI',Helvetica,Arial,sans-serif">470 µs</text>
<text x="230" y="638" text-anchor="end" font-size="12" fill="#24292f" font-family="-apple-system,BlinkMacSystemFont,'Segoe UI',Helvetica,Arial,sans-serif">Parséman (no compile)</text>
<rect x="238" y="623" width="386" height="18" rx="3" fill="#eaeef2"/>
<rect x="238" y="623" width="236.9" height="18" rx="3" fill="#C4BAFF"/>
<text x="479.87971139739113" y="638" font-size="11" fill="#57606a" font-family="-apple-system,BlinkMacSystemFont,'Segoe UI',Helvetica,Arial,sans-serif">582 µs</text>
<text x="230" y="666" text-anchor="end" font-size="12" fill="#24292f" font-family="-apple-system,BlinkMacSystemFont,'Segoe UI',Helvetica,Arial,sans-serif">Chevrotain</text>
<rect x="238" y="651" width="386" height="18" rx="3" fill="#eaeef2"/>
<rect x="238" y="651" width="251.3" height="18" rx="3" fill="#BA7517"/>
<text x="494.34032840258703" y="666" font-size="11" fill="#57606a" font-family="-apple-system,BlinkMacSystemFont,'Segoe UI',Helvetica,Arial,sans-serif">655 µs</text>
<text x="230" y="694" text-anchor="end" font-size="12" fill="#24292f" font-family="-apple-system,BlinkMacSystemFont,'Segoe UI',Helvetica,Arial,sans-serif">Parsimmon</text>
<rect x="238" y="679" width="386" height="18" rx="3" fill="#eaeef2"/>
<rect x="238" y="679" width="386.0" height="18" rx="3" fill="#E24B4A"/>
<text x="629" y="694" font-size="11" fill="#57606a" font-family="-apple-system,BlinkMacSystemFont,'Segoe UI',Helvetica,Arial,sans-serif">1.55 ms</text>
</svg>