<svg xmlns="http://www.w3.org/2000/svg" viewBox="0 0 720 546" width="720" height="546">
<rect width="720" height="546" fill="white" rx="6"/>
<rect x="20" y="20" width="11" height="11" rx="2" fill="#534AB7"/>
<text x="35" y="31" font-size="11.5" fill="#57606a" font-family="-apple-system,BlinkMacSystemFont,'Segoe UI',Helvetica,Arial,sans-serif">Parséman (macro build)</text>
<rect x="196" y="20" width="11" height="11" rx="2" fill="#9B8FEF"/>
<text x="211" y="31" font-size="11.5" fill="#57606a" font-family="-apple-system,BlinkMacSystemFont,'Segoe UI',Helvetica,Arial,sans-serif">Parséman (w/ .compile())</text>
<rect x="386" y="20" width="11" height="11" rx="2" fill="#C4BAFF"/>
<text x="401" y="31" font-size="11.5" fill="#57606a" font-family="-apple-system,BlinkMacSystemFont,'Segoe UI',Helvetica,Arial,sans-serif">Parséman (no compile)</text>
<rect x="20" y="40" width="11" height="11" rx="2" fill="#1D9E75"/>
<text x="35" y="51" font-size="11.5" fill="#57606a" font-family="-apple-system,BlinkMacSystemFont,'Segoe UI',Helvetica,Arial,sans-serif">Peggy</text>
<rect x="77" y="40" width="11" height="11" rx="2" fill="#E24B4A"/>
<text x="92" y="51" font-size="11.5" fill="#57606a" font-family="-apple-system,BlinkMacSystemFont,'Segoe UI',Helvetica,Arial,sans-serif">Parsimmon</text>
<rect x="162" y="40" width="11" height="11" rx="2" fill="#BA7517"/>
<text x="177" y="51" font-size="11.5" fill="#57606a" font-family="-apple-system,BlinkMacSystemFont,'Segoe UI',Helvetica,Arial,sans-serif">Chevrotain</text>
<text x="700" y="31" font-size="10.5" fill="#8c959f" text-anchor="end" font-family="-apple-system,BlinkMacSystemFont,'Segoe UI',Helvetica,Arial,sans-serif">µs / parse — shorter is faster</text>
<text x="20" y="86" font-size="10.5" font-weight="600" fill="#8c959f" letter-spacing="0.06em" font-family="-apple-system,BlinkMacSystemFont,'Segoe UI',Helvetica,Arial,sans-serif">CSV PARSING</text>
<text x="20" y="111" font-size="12.5" fill="#57606a" font-family="-apple-system,BlinkMacSystemFont,'Segoe UI',Helvetica,Arial,sans-serif">small  (54 bytes, 4 rows)</text>
<text x="230" y="146" text-anchor="end" font-size="12" fill="#24292f" font-family="-apple-system,BlinkMacSystemFont,'Segoe UI',Helvetica,Arial,sans-serif">Parséman (macro build)</text>
<rect x="238" y="131" width="386" height="18" rx="3" fill="#eaeef2"/>
<rect x="238" y="131" width="9.0" height="18" rx="3" fill="#534AB7"/>
<text x="251.99411458718518" y="146" font-size="11" fill="#57606a" font-family="-apple-system,BlinkMacSystemFont,'Segoe UI',Helvetica,Arial,sans-serif">0.57 µs</text>
<text x="230" y="174" text-anchor="end" font-size="12" fill="#24292f" font-family="-apple-system,BlinkMacSystemFont,'Segoe UI',Helvetica,Arial,sans-serif">Parséman (no compile)</text>
<rect x="238" y="159" width="386" height="18" rx="3" fill="#eaeef2"/>
<rect x="238" y="159" width="16.6" height="18" rx="3" fill="#C4BAFF"/>
<text x="259.59097319565046" y="174" font-size="11" fill="#57606a" font-family="-apple-system,BlinkMacSystemFont,'Segoe UI',Helvetica,Arial,sans-serif">1.93 µs</text>
<text x="230" y="202" text-anchor="end" font-size="12" fill="#24292f" font-family="-apple-system,BlinkMacSystemFont,'Segoe UI',Helvetica,Arial,sans-serif">Peggy</text>
<rect x="238" y="187" width="386" height="18" rx="3" fill="#eaeef2"/>
<rect x="238" y="187" width="16.9" height="18" rx="3" fill="#1D9E75"/>
<text x="259.91520014930177" y="202" font-size="11" fill="#57606a" font-family="-apple-system,BlinkMacSystemFont,'Segoe UI',Helvetica,Arial,sans-serif">2.01 µs</text>
<text x="230" y="230" text-anchor="end" font-size="12" fill="#24292f" font-family="-apple-system,BlinkMacSystemFont,'Segoe UI',Helvetica,Arial,sans-serif">Parsimmon</text>
<rect x="238" y="215" width="386" height="18" rx="3" fill="#eaeef2"/>
<rect x="238" y="215" width="22.6" height="18" rx="3" fill="#E24B4A"/>
<text x="265.5910073094048" y="230" font-size="11" fill="#57606a" font-family="-apple-system,BlinkMacSystemFont,'Segoe UI',Helvetica,Arial,sans-serif">3.59 µs</text>
<text x="230" y="258" text-anchor="end" font-size="12" fill="#24292f" font-family="-apple-system,BlinkMacSystemFont,'Segoe UI',Helvetica,Arial,sans-serif">Chevrotain</text>
<rect x="238" y="243" width="386" height="18" rx="3" fill="#eaeef2"/>
<rect x="238" y="243" width="27.8" height="18" rx="3" fill="#BA7517"/>
<text x="270.7716317574305" y="258" font-size="11" fill="#57606a" font-family="-apple-system,BlinkMacSystemFont,'Segoe UI',Helvetica,Arial,sans-serif">5.42 µs</text>
<text x="230" y="286" text-anchor="end" font-size="12" fill="#24292f" font-family="-apple-system,BlinkMacSystemFont,'Segoe UI',Helvetica,Arial,sans-serif">Parséman (w/ .compile())</text>
<rect x="238" y="271" width="386" height="18" rx="3" fill="#eaeef2"/>
<rect x="238" y="271" width="78.9" height="18" rx="3" fill="#D0C8FF"/>
<rect x="238" y="271" width="9.0" height="18" rx="3" fill="#9B8FEF"/>
<text x="321.92633324834" y="286" font-size="11" fill="#57606a" font-family="-apple-system,BlinkMacSystemFont,'Segoe UI',Helvetica,Arial,sans-serif">43.8 µs</text>
<text x="20" y="315" font-size="12.5" fill="#57606a" font-family="-apple-system,BlinkMacSystemFont,'Segoe UI',Helvetica,Arial,sans-serif">large  (14.8 kB, 500 rows)</text>
<text x="230" y="350" text-anchor="end" font-size="12" fill="#24292f" font-family="-apple-system,BlinkMacSystemFont,'Segoe UI',Helvetica,Arial,sans-serif">Parséman (macro build)</text>
<rect x="238" y="335" width="386" height="18" rx="3" fill="#eaeef2"/>
<rect x="238" y="335" width="115.5" height="18" rx="3" fill="#534AB7"/>
<text x="358.5395733124354" y="350" font-size="11" fill="#57606a" font-family="-apple-system,BlinkMacSystemFont,'Segoe UI',Helvetica,Arial,sans-serif">93.8 µs</text>
<text x="230" y="378" text-anchor="end" font-size="12" fill="#24292f" font-family="-apple-system,BlinkMacSystemFont,'Segoe UI',Helvetica,Arial,sans-serif">Parséman (w/ .compile())</text>
<rect x="238" y="363" width="386" height="18" rx="3" fill="#eaeef2"/>
<rect x="238" y="363" width="139.5" height="18" rx="3" fill="#D0C8FF"/>
<rect x="238" y="363" width="115.5" height="18" rx="3" fill="#9B8FEF"/>
<text x="382.52756320808896" y="378" font-size="11" fill="#57606a" font-family="-apple-system,BlinkMacSystemFont,'Segoe UI',Helvetica,Arial,sans-serif">137 µs</text>
<text x="230" y="406" text-anchor="end" font-size="12" fill="#24292f" font-family="-apple-system,BlinkMacSystemFont,'Segoe UI',Helvetica,Arial,sans-serif">Parséman (no compile)</text>
<rect x="238" y="391" width="386" height="18" rx="3" fill="#eaeef2"/>
<rect x="238" y="391" width="218.5" height="18" rx="3" fill="#C4BAFF"/>
<text x="461.47814635815473" y="406" font-size="11" fill="#57606a" font-family="-apple-system,BlinkMacSystemFont,'Segoe UI',Helvetica,Arial,sans-serif">335 µs</text>
<text x="230" y="434" text-anchor="end" font-size="12" fill="#24292f" font-family="-apple-system,BlinkMacSystemFont,'Segoe UI',Helvetica,Arial,sans-serif">Peggy</text>
<rect x="238" y="419" width="386" height="18" rx="3" fill="#eaeef2"/>
<rect x="238" y="419" width="247.9" height="18" rx="3" fill="#1D9E75"/>
<text x="490.86757216976434" y="434" font-size="11" fill="#57606a" font-family="-apple-system,BlinkMacSystemFont,'Segoe UI',Helvetica,Arial,sans-serif">432 µs</text>
<text x="230" y="462" text-anchor="end" font-size="12" fill="#24292f" font-family="-apple-system,BlinkMacSystemFont,'Segoe UI',Helvetica,Arial,sans-serif">Parsimmon</text>
<rect x="238" y="447" width="386" height="18" rx="3" fill="#eaeef2"/>
<rect x="238" y="447" width="250.6" height="18" rx="3" fill="#E24B4A"/>
<text x="493.6426001785861" y="462" font-size="11" fill="#57606a" font-family="-apple-system,BlinkMacSystemFont,'Segoe UI',Helvetica,Arial,sans-serif">442 µs</text>
<text x="230" y="490" text-anchor="end" font-size="12" fill="#24292f" font-family="-apple-system,BlinkMacSystemFont,'Segoe UI',Helvetica,Arial,sans-serif">Chevrotain</text>
<rect x="238" y="475" width="386" height="18" rx="3" fill="#eaeef2"/>
<rect x="238" y="475" width="386.0" height="18" rx="3" fill="#BA7517"/>
<text x="629" y="490" font-size="11" fill="#57606a" font-family="-apple-system,BlinkMacSystemFont,'Segoe UI',Helvetica,Arial,sans-serif">1.05 ms</text>
</svg>