<svg xmlns="http://www.w3.org/2000/svg" viewBox="0 0 700 468" width="700" height="468">
<rect width="700" height="468" fill="white" rx="6"/>
<rect x="20" y="20" width="11" height="11" rx="2" fill="#534AB7"/>
<text x="35" y="31" font-size="11.5" fill="#57606a" font-family="-apple-system,BlinkMacSystemFont,'Segoe UI',Helvetica,Arial,sans-serif">Parséman (compiled)</text>
<rect x="167.5" y="20" width="11" height="11" rx="2" fill="#8B7FE8"/>
<text x="182.5" y="31" font-size="11.5" fill="#57606a" font-family="-apple-system,BlinkMacSystemFont,'Segoe UI',Helvetica,Arial,sans-serif">Parséman (interpreter)</text>
<rect x="334.5" y="20" width="11" height="11" rx="2" fill="#1D9E75"/>
<text x="349.5" y="31" font-size="11.5" fill="#57606a" font-family="-apple-system,BlinkMacSystemFont,'Segoe UI',Helvetica,Arial,sans-serif">Peggy</text>
<rect x="20" y="40" width="11" height="11" rx="2" fill="#E24B4A"/>
<text x="35" y="51" font-size="11.5" fill="#57606a" font-family="-apple-system,BlinkMacSystemFont,'Segoe UI',Helvetica,Arial,sans-serif">Parsimmon</text>
<rect x="102.5" y="40" width="11" height="11" rx="2" fill="#BA7517"/>
<text x="117.5" y="51" font-size="11.5" fill="#57606a" font-family="-apple-system,BlinkMacSystemFont,'Segoe UI',Helvetica,Arial,sans-serif">Chevrotain</text>
<text x="680" y="31" font-size="10.5" fill="#8c959f" text-anchor="end" font-family="-apple-system,BlinkMacSystemFont,'Segoe UI',Helvetica,Arial,sans-serif">µs / parse — shorter is faster</text>
<text x="20" y="86" font-size="10.5" font-weight="600" fill="#8c959f" letter-spacing="0.06em" font-family="-apple-system,BlinkMacSystemFont,'Segoe UI',Helvetica,Arial,sans-serif">CSV PARSING</text>
<text x="20" y="111" font-size="12.5" fill="#57606a" font-family="-apple-system,BlinkMacSystemFont,'Segoe UI',Helvetica,Arial,sans-serif">small  (54 bytes)</text>
<text x="200" y="138" text-anchor="end" font-size="12" fill="#24292f" font-family="-apple-system,BlinkMacSystemFont,'Segoe UI',Helvetica,Arial,sans-serif">Parséman (compiled)</text>
<rect x="208" y="125" width="396" height="18" rx="3" fill="#eaeef2"/>
<rect x="208" y="125" width="65.1" height="18" rx="3" fill="#534AB7"/>
<text x="280.0571428571429" y="138" font-size="11" fill="#57606a" font-family="-apple-system,BlinkMacSystemFont,'Segoe UI',Helvetica,Arial,sans-serif">0.92 µs</text>
<text x="200" y="166" text-anchor="end" font-size="12" fill="#24292f" font-family="-apple-system,BlinkMacSystemFont,'Segoe UI',Helvetica,Arial,sans-serif">Parséman (interpreter)</text>
<rect x="208" y="153" width="396" height="18" rx="3" fill="#eaeef2"/>
<rect x="208" y="153" width="139.3" height="18" rx="3" fill="#8B7FE8"/>
<text x="354.3071428571429" y="166" font-size="11" fill="#57606a" font-family="-apple-system,BlinkMacSystemFont,'Segoe UI',Helvetica,Arial,sans-serif">1.97 µs</text>
<text x="200" y="194" text-anchor="end" font-size="12" fill="#24292f" font-family="-apple-system,BlinkMacSystemFont,'Segoe UI',Helvetica,Arial,sans-serif">Peggy</text>
<rect x="208" y="181" width="396" height="18" rx="3" fill="#eaeef2"/>
<rect x="208" y="181" width="145.7" height="18" rx="3" fill="#1D9E75"/>
<text x="360.6714285714286" y="194" font-size="11" fill="#57606a" font-family="-apple-system,BlinkMacSystemFont,'Segoe UI',Helvetica,Arial,sans-serif">2.06 µs</text>
<text x="200" y="222" text-anchor="end" font-size="12" fill="#24292f" font-family="-apple-system,BlinkMacSystemFont,'Segoe UI',Helvetica,Arial,sans-serif">Parsimmon</text>
<rect x="208" y="209" width="396" height="18" rx="3" fill="#eaeef2"/>
<rect x="208" y="209" width="263.8" height="18" rx="3" fill="#E24B4A"/>
<text x="478.76428571428573" y="222" font-size="11" fill="#57606a" font-family="-apple-system,BlinkMacSystemFont,'Segoe UI',Helvetica,Arial,sans-serif">3.73 µs</text>
<text x="200" y="250" text-anchor="end" font-size="12" fill="#24292f" font-family="-apple-system,BlinkMacSystemFont,'Segoe UI',Helvetica,Arial,sans-serif">Chevrotain</text>
<rect x="208" y="237" width="396" height="18" rx="3" fill="#eaeef2"/>
<rect x="208" y="237" width="396.0" height="18" rx="3" fill="#BA7517"/>
<text x="611" y="250" font-size="11" fill="#57606a" font-family="-apple-system,BlinkMacSystemFont,'Segoe UI',Helvetica,Arial,sans-serif">5.60 µs</text>
<text x="20" y="291" font-size="12.5" fill="#57606a" font-family="-apple-system,BlinkMacSystemFont,'Segoe UI',Helvetica,Arial,sans-serif">large  (14.8 kB)</text>
<text x="200" y="318" text-anchor="end" font-size="12" fill="#24292f" font-family="-apple-system,BlinkMacSystemFont,'Segoe UI',Helvetica,Arial,sans-serif">Parséman (compiled)</text>
<rect x="208" y="305" width="396" height="18" rx="3" fill="#eaeef2"/>
<rect x="208" y="305" width="59.4" height="18" rx="3" fill="#534AB7"/>
<text x="274.4355568857795" y="318" font-size="11" fill="#57606a" font-family="-apple-system,BlinkMacSystemFont,'Segoe UI',Helvetica,Arial,sans-serif">160 µs</text>
<text x="200" y="346" text-anchor="end" font-size="12" fill="#24292f" font-family="-apple-system,BlinkMacSystemFont,'Segoe UI',Helvetica,Arial,sans-serif">Parséman (interpreter)</text>
<rect x="208" y="333" width="396" height="18" rx="3" fill="#eaeef2"/>
<rect x="208" y="333" width="129.1" height="18" rx="3" fill="#8B7FE8"/>
<text x="344.0826069063564" y="346" font-size="11" fill="#57606a" font-family="-apple-system,BlinkMacSystemFont,'Segoe UI',Helvetica,Arial,sans-serif">349 µs</text>
<text x="200" y="374" text-anchor="end" font-size="12" fill="#24292f" font-family="-apple-system,BlinkMacSystemFont,'Segoe UI',Helvetica,Arial,sans-serif">Peggy</text>
<rect x="208" y="361" width="396" height="18" rx="3" fill="#eaeef2"/>
<rect x="208" y="361" width="166.1" height="18" rx="3" fill="#1D9E75"/>
<text x="381.09880653971345" y="374" font-size="11" fill="#57606a" font-family="-apple-system,BlinkMacSystemFont,'Segoe UI',Helvetica,Arial,sans-serif">448 µs</text>
<text x="200" y="402" text-anchor="end" font-size="12" fill="#24292f" font-family="-apple-system,BlinkMacSystemFont,'Segoe UI',Helvetica,Arial,sans-serif">Parsimmon</text>
<rect x="208" y="389" width="396" height="18" rx="3" fill="#eaeef2"/>
<rect x="208" y="389" width="170.5" height="18" rx="3" fill="#E24B4A"/>
<text x="385.5174903662688" y="402" font-size="11" fill="#57606a" font-family="-apple-system,BlinkMacSystemFont,'Segoe UI',Helvetica,Arial,sans-serif">460 µs</text>
<text x="200" y="430" text-anchor="end" font-size="12" fill="#24292f" font-family="-apple-system,BlinkMacSystemFont,'Segoe UI',Helvetica,Arial,sans-serif">Chevrotain</text>
<rect x="208" y="417" width="396" height="18" rx="3" fill="#eaeef2"/>
<rect x="208" y="417" width="396.0" height="18" rx="3" fill="#BA7517"/>
<text x="611" y="430" font-size="11" fill="#57606a" font-family="-apple-system,BlinkMacSystemFont,'Segoe UI',Helvetica,Arial,sans-serif">1.07 ms</text>
</svg>